PathFileType	3	(X/Y/Z)	random_1__view2_aligned.trc
DataRate	CameraRate	NumFrames	NumMarkers	Units	OrigDataRate	OrigDataStartFrame	OrigNumFrames
100.0	100.0	17	19	mm	100.0	349	1930
Frame#	Time	pelvis			neck			head			hip_left			hip_right			knee_left			knee_right			ankle_left			ankle_right			heel_left			heel_right			toe_left			toe_right			shoulder_left			shoulder_right			elbow_left			elbow_right			wrist_left			wrist_right			
		X1	Y1	Z1	X2	Y2	Z2	X3	Y3	Z3	X4	Y4	Z4	X5	Y5	Z5	X6	Y6	Z6	X7	Y7	Z7	X8	Y8	Z8	X9	Y9	Z9	X10	Y10	Z10	X11	Y11	Z11	X12	Y12	Z12	X13	Y13	Z13	X14	Y14	Z14	X15	Y15	Z15	X16	Y16	Z16	X17	Y17	Z17	X18	Y18	Z18	X19	Y19	Z19	
349	3.48000	9.072842	958.507598	26.728808	-66.382132	1514.382705	148.559125	-74.163948	1673.761976	113.311413	-56.508746	956.329966	-5.970714	74.654618	960.685220	59.428363	-45.454750	525.005796	-44.816091	149.852877	541.912274	-22.389684	-105.260445	135.465407	73.978602	107.588594	144.669726	76.546394	-122.757556	94.120391	111.967433	87.921060	99.611221	110.173093	-20.683632	54.364054	-74.384970	182.606981	75.948379	-85.216255	-207.736723	1498.861705	56.059636	84.795387	1494.572070	226.905462	-4.220667	1472.910735	-149.767604	208.766844	1564.217203	-26.810806	119.184829	1681.191829	-49.660424	81.099431	1792.733081	-53.216067
350	3.49000	5.803024	958.437516	28.460264	-68.677685	1514.774826	147.472893	-76.391421	1673.964421	111.540175	-59.715867	956.278203	-4.184349	71.322056	960.596830	61.104902	-48.582777	525.211682	-43.814748	146.596617	542.187729	-21.600457	-107.977344	135.530531	73.794520	104.501843	144.980335	76.605586	-125.408238	94.095531	111.693143	84.807802	99.908532	110.178588	-23.619025	54.802249	-74.934782	179.677357	76.320084	-85.229688	-210.146583	1498.919886	55.329036	82.418452	1495.319990	225.886884	-7.077018	1471.507113	-150.742533	205.667514	1564.675001	-28.319271	116.915888	1679.511710	-50.937461	78.276719	1793.198870	-55.530460
351	3.50000	2.533206	958.367434	30.191720	-70.973239	1515.166948	146.386660	-78.618894	1674.166865	109.768937	-62.922987	956.226439	-2.397985	67.989494	960.508439	62.781441	-51.710804	525.417569	-42.813404	143.340357	542.463183	-20.811231	-110.694243	135.595656	73.610439	101.415092	145.290943	76.664777	-128.058919	94.070672	111.418854	81.694543	100.205844	110.184083	-26.554419	55.240444	-75.484595	176.747734	76.691789	-85.243121	-212.556443	1498.978067	54.598436	80.041517	1496.067910	224.868305	-9.933369	1470.103491	-151.717462	202.568184	1565.132799	-29.827736	114.646946	1677.831591	-52.214499	75.454007	1793.664659	-57.844853
352	3.51000	-0.736612	958.297352	31.923176	-73.268793	1515.559070	145.300427	-80.846367	1674.369310	107.997700	-66.130107	956.174676	-0.611621	64.656932	960.420049	64.457980	-54.838831	525.623455	-41.812061	140.084098	542.738638	-20.022004	-113.411142	135.660780	73.426358	98.328340	145.601552	76.723968	-130.709601	94.045812	111.144564	78.581285	100.503155	110.189578	-29.489812	55.678638	-76.034407	173.818110	77.063494	-85.256554	-214.966303	1499.036247	53.867836	77.664582	1496.815831	223.849726	-12.789720	1468.699869	-152.692391	199.468854	1565.590598	-31.336201	112.378005	1676.151471	-53.491536	72.631295	1794.130447	-60.159246
353	3.52000	-4.006430	958.227270	33.654631	-75.564347	1515.951191	144.214194	-83.073839	1674.571755	106.226462	-69.337228	956.122912	1.174744	61.324370	960.331658	66.134519	-57.966858	525.829342	-40.810718	136.827838	543.014093	-19.232778	-116.128041	135.725905	73.242276	95.241589	145.912160	76.783160	-133.360283	94.020953	110.870274	75.468027	100.800467	110.195073	-32.425205	56.116833	-76.584219	170.888486	77.435199	-85.269987	-217.376164	1499.094428	53.137235	75.287647	1497.563751	222.831147	-15.646071	1467.296248	-153.667320	196.369524	1566.048396	-32.844666	110.109063	1674.471352	-54.768573	69.808582	1794.596236	-62.473639
354	3.53000	-7.276248	958.157189	35.386087	-77.859900	1516.343313	143.127961	-85.301312	1674.774200	104.455224	-72.544348	956.071149	2.961108	57.991808	960.243268	67.811059	-61.094884	526.035228	-39.809374	133.571578	543.289547	-18.443552	-118.844940	135.791029	73.058195	92.154837	146.222769	76.842351	-136.010965	93.996093	110.595984	72.354768	101.097778	110.200567	-35.360598	56.555028	-77.134032	167.958863	77.806904	-85.283420	-219.786024	1499.152609	52.406635	72.910712	1498.311671	221.812568	-18.502422	1465.892626	-154.642249	193.270194	1566.506194	-34.353131	107.840122	1672.791233	-56.045611	66.985870	1795.062024	-64.788032
355	3.54000	-10.546066	958.087107	37.117543	-80.155454	1516.735434	142.041728	-87.528785	1674.976644	102.683986	-75.751469	956.019385	4.747472	54.659246	960.154877	69.487598	-64.222911	526.241115	-38.808031	130.315319	543.565002	-17.654325	-121.561839	135.856154	72.874113	89.068086	146.533378	76.901543	-138.661647	93.971233	110.321694	69.241510	101.395090	110.206062	-38.295991	56.993223	-77.683844	165.029239	78.178609	-85.296853	-222.195884	1499.210790	51.676035	70.533777	1499.059592	220.793989	-21.358773	1464.489004	-155.617178	190.170864	1566.963992	-35.861596	105.571180	1671.111113	-57.322648	64.163158	1795.527813	-67.102425
356	3.55000	-13.815884	958.017025	38.848999	-82.451008	1517.127556	140.955495	-89.756258	1675.179089	100.912748	-78.958589	955.967622	6.533836	51.326684	960.066487	71.164137	-67.350938	526.447001	-37.806688	127.059059	543.840456	-16.865099	-124.278738	135.921278	72.690032	85.981334	146.843986	76.960734	-141.312329	93.946374	110.047405	66.128252	101.692401	110.211557	-41.231384	57.431418	-78.233656	162.099615	78.550314	-85.310286	-224.605745	1499.268971	50.945435	68.156842	1499.807512	219.775411	-24.215124	1463.085382	-156.592107	187.071534	1567.421790	-37.370061	103.302239	1669.430994	-58.599686	61.340446	1795.993602	-69.416818
357	3.56000	-17.085702	957.946943	40.580455	-84.746562	1517.519677	139.869262	-91.983731	1675.381534	99.141511	-82.165709	955.915858	8.320201	47.994122	959.978096	72.840676	-70.478965	526.652888	-36.805345	123.802799	544.115911	-16.075872	-126.995637	135.986403	72.505951	82.894583	147.154595	77.019925	-143.963010	93.921514	109.773115	63.014993	101.989713	110.217052	-44.166778	57.869613	-78.783468	159.169992	78.922019	-85.323719	-227.015605	1499.327152	50.214834	65.779906	1500.555432	218.756832	-27.071475	1461.681761	-157.567036	183.972204	1567.879588	-38.878526	101.033297	1667.750875	-59.876723	58.517734	1796.459390	-71.731211
358	3.57000	-20.355521	957.876861	42.311911	-87.042115	1517.911799	138.783029	-94.211204	1675.583978	97.370273	-85.372830	955.864095	10.106565	44.661560	959.889706	74.517215	-73.606991	526.858774	-35.804001	120.546540	544.391365	-15.286646	-129.712536	136.051527	72.321869	79.807831	147.465203	77.079117	-146.613692	93.896655	109.498825	59.901735	102.287024	110.222547	-47.102171	58.307808	-79.333281	156.240368	79.293724	-85.337152	-229.425465	1499.385333	49.484234	63.402971	1501.303353	217.738253	-29.927826	1460.278139	-158.541965	180.872873	1568.337386	-40.386991	98.764355	1666.070755	-61.153761	55.695021	1796.925179	-74.045604
359	3.58000	-23.161319	957.770374	44.047999	-88.791961	1518.306731	137.874565	-95.533069	1675.813054	95.750948	-88.170366	955.755031	11.840851	41.847499	959.785790	76.255106	-76.663618	526.924532	-34.820033	117.707778	544.464371	-13.656287	-132.114827	135.911892	72.123655	76.978221	147.609238	78.099526	-148.858238	93.645409	109.227015	56.966566	102.429112	111.134194	-49.993468	58.692497	-80.148601	154.093220	79.481929	-84.109144	-231.464795	1499.621237	48.493698	61.896071	1502.002563	217.044020	-31.380395	1457.349579	-159.068196	178.897492	1569.290066	-42.039257	99.828046	1662.303929	-61.141399	54.378767	1798.360827	-77.075112
360	3.59000	-25.967117	957.663887	45.784088	-90.541807	1518.701664	136.966101	-96.854935	1676.042130	94.131623	-90.967901	955.645966	13.575136	39.033438	959.681874	77.992998	-79.720244	526.990289	-33.836065	114.869017	544.537377	-12.025927	-134.517117	135.772258	71.925442	74.148610	147.753274	79.119934	-151.102783	93.394164	108.955206	54.031397	102.571200	112.045841	-52.884765	59.077187	-80.963922	151.946072	79.670135	-82.881135	-233.504126	1499.857142	47.503162	60.389170	1502.701772	216.349787	-32.832963	1454.421019	-159.594427	176.922111	1570.242747	-43.691523	100.891737	1658.537103	-61.129037	53.062512	1799.796475	-80.104619
361	3.60000	-28.772915	957.557400	47.520176	-92.291653	1519.096596	136.057638	-98.176801	1676.271205	92.512298	-93.765437	955.536902	15.309422	36.219377	959.577958	79.730890	-82.776871	527.056046	-32.852098	112.030255	544.610383	-10.395568	-136.919408	135.632623	71.727228	71.318999	147.897309	80.140343	-153.347329	93.142919	108.683396	51.096228	102.713287	112.957488	-55.776062	59.461877	-81.779242	149.798924	79.858340	-81.653126	-235.543456	1500.093047	46.512626	58.882269	1503.400982	215.655553	-34.285531	1451.492459	-160.120658	174.946730	1571.195427	-45.343789	101.955428	1654.770276	-61.116675	51.746257	1801.232124	-83.134126
362	3.61000	-31.578713	957.450913	49.256264	-94.041499	1519.491529	135.149174	-99.498667	1676.500281	90.892973	-96.562973	955.427838	17.043708	33.405316	959.474043	81.468781	-85.833497	527.121803	-31.868130	109.191494	544.683389	-8.765209	-139.321699	135.492989	71.529014	68.489388	148.041344	81.160752	-155.591874	92.891674	108.411587	48.161059	102.855375	113.869135	-58.667358	59.846566	-82.594562	147.651776	80.046546	-80.425118	-237.582786	1500.328952	45.522091	57.375368	1504.100192	214.961320	-35.738099	1448.563898	-160.646888	172.971349	1572.148107	-46.996055	103.019119	1651.003450	-61.104313	50.430002	1802.667772	-86.163633
363	3.62000	-34.384511	957.344426	50.992352	-95.791345	1519.886461	134.240710	-100.820532	1676.729356	89.273648	-99.360509	955.318773	18.777994	30.591255	959.370127	83.206673	-88.890124	527.187561	-30.884162	106.352732	544.756395	-7.134849	-141.723989	135.353354	71.330800	65.659777	148.185379	82.181161	-157.836419	92.640429	108.139777	45.225890	102.997463	114.780782	-61.558655	60.231256	-83.409883	145.504628	80.234752	-79.197109	-239.622116	1500.564857	44.531555	55.868468	1504.799402	214.267087	-37.190668	1445.635338	-161.173119	170.995968	1573.100787	-48.648320	104.082810	1647.236624	-61.091951	49.113748	1804.103420	-89.193141
364	3.63000	-37.190309	957.237939	52.728441	-97.541191	1520.281393	133.332246	-102.142398	1676.958432	87.654323	-102.158045	955.209709	20.512279	27.777194	959.266211	84.944564	-91.946750	527.253318	-29.900194	103.513971	544.829401	-5.504490	-144.126280	135.213719	71.132586	62.830167	148.329414	83.201570	-160.080965	92.389183	107.867968	42.290721	103.139551	115.692428	-64.449952	60.615946	-84.225203	143.357480	80.422957	-77.969100	-241.661446	1500.800761	43.541019	54.361567	1505.498612	213.572854	-38.643236	1442.706778	-161.699350	169.020587	1574.053467	-50.300586	105.146501	1643.469797	-61.079589	47.797493	1805.539068	-92.222648
365	3.64000	-39.996107	957.131452	54.464529	-99.291037	1520.676326	132.423783	-103.464264	1677.187507	86.034999	-104.955581	955.100644	22.246565	24.963133	959.162296	86.682456	-95.003377	527.319075	-28.916226	100.675209	544.902407	-3.874130	-146.528571	135.074085	70.934373	60.000556	148.473450	84.221979	-162.325510	92.137938	107.596159	39.355551	103.281638	116.604075	-67.341249	61.000635	-85.040523	141.210332	80.611163	-76.741092	-243.700777	1501.036666	42.550483	52.854666	1506.197822	212.878620	-40.095804	1439.778218	-162.225581	167.045206	1575.006147	-51.952852	106.210192	1639.702971	-61.067227	46.481238	1806.974716	-95.252155
